<svg xmlns="http://www.w3.org/2000/svg" viewBox="0 0 500 81.55"><defs><style>.cls-1{fill:#5e5e5e;}.cls-2{fill:#fc9202;}</style></defs><g id="login"><path class="cls-1" d="M0,63.26V1.06H12.39l14.72,44q2,6.15,3,9.21,1.07-3.39,3.31-10L48.28,1.06H59.36v62.2H51.42V11.2L33.35,63.26H25.93l-18-52.95v53Z"/><path class="cls-1" d="M65.34,40.73q0-12.51,7-18.54a21,21,0,0,1,14.17-5q9.3,0,15.19,6.09t5.9,16.82q0,8.7-2.61,13.69a18.5,18.5,0,0,1-7.59,7.74,22.15,22.15,0,0,1-10.89,2.76q-9.45,0-15.29-6.07T65.34,40.73Zm7.85,0q0,8.66,3.78,13a12.57,12.57,0,0,0,19,0q3.77-4.32,3.77-13.19,0-8.37-3.8-12.67a12.58,12.58,0,0,0-18.94,0Q73.19,32.08,73.19,40.73Z"/><path class="cls-1" d="M120.08,63.26H113V1.06h7.63V23.25A15.14,15.14,0,0,1,133,17.18a18.89,18.89,0,0,1,7.87,1.68A16.18,16.18,0,0,1,147,23.57a22.57,22.57,0,0,1,3.75,7.32,30,30,0,0,1,1.36,9.16q0,11.58-5.73,17.91a17.91,17.91,0,0,1-13.74,6.32,14.36,14.36,0,0,1-12.52-6.66ZM120,40.39q0,8.1,2.2,11.71Q125.82,58,132,58a11,11,0,0,0,8.66-4.35q3.65-4.35,3.64-13,0-8.84-3.49-13a10.68,10.68,0,0,0-8.47-4.2,11,11,0,0,0-8.66,4.35Q120,32.16,120,40.39Z"/><path class="cls-1" d="M157.93,9.84V1.06h7.63V9.84Zm0,53.42V18.2h7.63V63.26Z"/><path class="cls-1" d="M173.55,63.26V1.06h7.63v62.2Z"/><path class="cls-1" d="M220.39,48.75l7.89,1a19.26,19.26,0,0,1-6.91,10.73q-5.06,3.82-12.9,3.82-9.89,0-15.68-6.09T187,41.11q0-11.37,5.86-17.65T208,17.18a19.25,19.25,0,0,1,14.77,6.16q5.73,6.15,5.73,17.3c0,.46,0,1.14,0,2H194.89q.42,7.43,4.2,11.37a12.52,12.52,0,0,0,9.42,4,11.69,11.69,0,0,0,7.17-2.21A14.66,14.66,0,0,0,220.39,48.75ZM195.31,36.4h25.17c-.34-3.79-1.31-6.63-2.89-8.53a11.71,11.71,0,0,0-9.46-4.41A12.17,12.17,0,0,0,199.28,27,14,14,0,0,0,195.31,36.4Z"/><path class="cls-2" d="M231.81,43,244,41.83q1.09,6.16,4.47,9c2.25,1.92,5.28,2.89,9.1,2.89q6.07,0,9.15-2.57a7.63,7.63,0,0,0,3.07-6,5.67,5.67,0,0,0-1.29-3.76A10.32,10.32,0,0,0,264,38.74Q261.81,38,254,36q-10.09-2.51-14.17-6.15a16.18,16.18,0,0,1-5.72-12.52,16,16,0,0,1,2.69-8.89,17,17,0,0,1,7.77-6.3A31.08,31.08,0,0,1,256.75,0q11.72,0,17.64,5.13a18.16,18.16,0,0,1,6.21,13.71L268,19.39c-.54-3.2-1.69-5.49-3.46-6.9s-4.42-2.1-7.95-2.1-6.51.75-8.57,2.25a4.53,4.53,0,0,0-2,3.86,4.76,4.76,0,0,0,1.87,3.78q2.38,2,11.54,4.16T273,28.91a17.51,17.51,0,0,1,6.87,6.33,18.5,18.5,0,0,1,2.48,9.9,18.32,18.32,0,0,1-3,10,17.78,17.78,0,0,1-8.4,6.93,35.08,35.08,0,0,1-13.53,2.27q-11.81,0-18.12-5.45T231.81,43Z"/><path class="cls-2" d="M319,63.26V56.51a17.3,17.3,0,0,1-6.47,5.69,18.19,18.19,0,0,1-8.46,2.08,16.57,16.57,0,0,1-8.15-2,11.75,11.75,0,0,1-5.22-5.6q-1.61-3.6-1.61-10V18.2h11.92V38.91c0,6.33.22,10.22.66,11.64a6.39,6.39,0,0,0,2.4,3.4,7.39,7.39,0,0,0,4.41,1.25A9.34,9.34,0,0,0,314,53.52a8.41,8.41,0,0,0,3.31-4.16q.9-2.47.89-12.15v-19h11.93V63.26Z"/><path class="cls-2" d="M350.4,63.26H338.48V18.2h11.07v6.41q2.85-4.55,5.11-6a9.38,9.38,0,0,1,5.16-1.45,15.15,15.15,0,0,1,7.85,2.25L364,29.83a10.51,10.51,0,0,0-5.6-2,6.66,6.66,0,0,0-4.24,1.38,9.43,9.43,0,0,0-2.74,5q-1,3.6-1,15.1Z"/><path class="cls-2" d="M395.42,48.92l11.88,2a19.48,19.48,0,0,1-7.23,10,21.25,21.25,0,0,1-12.37,3.42q-11.76,0-17.4-7.68-4.46-6.15-4.45-15.53,0-11.2,5.85-17.54a19.3,19.3,0,0,1,14.81-6.35q10,0,15.87,6.64t5.56,20.35H378.07q.12,5.3,2.88,8.25a9,9,0,0,0,6.88,2.95,7.32,7.32,0,0,0,4.71-1.53A9.46,9.46,0,0,0,395.42,48.92Zm.68-12.05Q396,31.7,393.43,29a8.62,8.62,0,0,0-12.65.15,11,11,0,0,0-2.5,7.72Z"/><path class="cls-2" d="M434.84,18.2v9.51h-8.15V45.86a44,44,0,0,0,.24,6.43A2.61,2.61,0,0,0,428,53.8a3.32,3.32,0,0,0,2,.59,15.51,15.51,0,0,0,4.8-1.14l1,9.25a23.9,23.9,0,0,1-9.42,1.78,14.93,14.93,0,0,1-5.81-1.08,8.48,8.48,0,0,1-3.8-2.81,10.94,10.94,0,0,1-1.68-4.64,58.55,58.55,0,0,1-.38-8.4V27.71h-5.47V18.2h5.47V9.25l12-7V18.2Z"/><path class="cls-2" d="M434,18.2h12.68l10.78,32L468,18.2h12.35L464.42,61.56l-2.85,7.85a31.68,31.68,0,0,1-3,6,13.15,13.15,0,0,1-3.27,3.37,14.45,14.45,0,0,1-4.53,2,23.66,23.66,0,0,1-6.09.72,31.64,31.64,0,0,1-6.75-.72l-1.06-9.34a26.21,26.21,0,0,0,5.05.55q4.15,0,6.15-2.44a16.87,16.87,0,0,0,3.06-6.21Z"/><path class="cls-1" d="M480.15,8V5.75h8.1V8h-2.73v7h-2.67V8Zm12.73-2.2L494.54,11l1.65-5.28H500v9.18h-2.44V8.29l-2,6.64h-2.08l-2-6.63v6.63h-2.43V5.75Z"/></g></svg>